<svg xmlns="http://www.w3.org/2000/svg" xmlns:xlink="http://www.w3.org/1999/xlink" version="1.1" x="0px" y="0px" viewBox="0 0 100 100" style="enable-background:new 0 0 100 100;" xml:space="preserve"><g><path d="M75.7,73.1c-4.6-5.7-11.1-9.8-18.2-11.6v-8.8c6.5-3.1,11.1-9.7,11.1-17.4l0-8.3c0-3.7-1.9-8.1-5-11.5   c-3.6-3.9-8.3-6-13.2-6C38.7,9.5,30,18.8,30,27l0,8.3c0,7.7,4.5,14.3,11.1,17.4v8.8c-7.1,1.8-13.5,5.9-18.2,11.6   c-4.9,6-7.6,13.6-7.6,21.4v1h67.9v-1C83.3,86.7,80.6,79.1,75.7,73.1z M50.4,11.5c9.8,0,16.3,9.3,16.3,15.5l0,1.9H32l0-1.9   C32,19.7,39.9,11.5,50.4,11.5z M32,35.3l0-4.4h34.6l0,4.4c0,9.5-7.8,17.3-17.3,17.3C39.8,52.6,32,44.8,32,35.3z M49.3,54.6   c2.2,0,4.3-0.4,6.2-1.1V63l0,0.2c0,0.1,1.6,8.6-1.7,12.6c-1.1,1.4-2.7,2-4.7,2c-1.9,0-3.4-0.6-4.4-1.9c-3.3-4-1.7-12.7-1.7-12.7   l0-0.1v-9.6C45,54.2,47.1,54.6,49.3,54.6z M17.4,93.5c0.2-7,2.7-13.7,7.1-19.1c4.2-5.2,10.1-9,16.5-10.7c-0.3,2.4-1,9.6,2.2,13.6   c1.4,1.7,3.4,2.6,5.9,2.6c2.6,0,4.7-0.9,6.2-2.7c3.3-4,2.6-11.1,2.2-13.5c6.5,1.7,12.3,5.5,16.5,10.7c4.4,5.4,6.9,12.2,7.1,19.1   H17.4z"></path><path d="M57.3,25c0-4.4-3.6-7.9-7.9-7.9c-4.4,0-7.9,3.6-7.9,7.9v1h15.9V25z M43.4,24c0.5-2.8,2.9-5,5.9-5c3,0,5.4,2.2,5.9,5H43.4z"></path></g></svg>